<svg xmlns="http://www.w3.org/2000/svg" xmlns:xlink="http://www.w3.org/1999/xlink" width="2000" zoomAndPan="magnify" viewBox="0 0 1500 1499.999933" height="2000" preserveAspectRatio="xMidYMid meet" version="1.0"><defs><clipPath id="f88433d9ba"><path d="M 460.960938 460.960938 L 1039.210938 460.960938 L 1039.210938 1039.210938 L 460.960938 1039.210938 Z M 460.960938 460.960938 " clip-rule="nonzero"/></clipPath></defs><g clip-path="url(#f88433d9ba)"><path fill="#ffffff" d="M 681.710938 460.972656 L 460.960938 460.972656 L 460.960938 719.511719 C 460.960938 797.195312 524.164062 860.371094 601.84375 860.371094 L 639.609375 860.371094 L 639.609375 898.132812 C 639.609375 975.816406 702.8125 1039.019531 780.496094 1039.019531 L 1039.035156 1039.019531 L 1039.035156 818.269531 L 681.710938 818.269531 Z M 639.609375 818.269531 L 601.84375 818.269531 C 547.371094 818.269531 503.058594 773.960938 503.058594 719.511719 L 503.058594 503.074219 L 639.609375 503.074219 Z M 996.90625 860.371094 L 996.90625 996.917969 L 780.496094 996.917969 C 726.019531 996.917969 681.710938 952.609375 681.710938 898.132812 L 681.710938 860.371094 Z M 883.988281 771.058594 C 969.46875 771.058594 1039.035156 701.523438 1039.035156 616.015625 C 1039.035156 530.511719 969.46875 460.972656 883.988281 460.972656 C 798.511719 460.972656 728.945312 530.511719 728.945312 616.015625 C 728.945312 701.523438 798.484375 771.058594 883.988281 771.058594 Z M 883.988281 503.074219 C 946.261719 503.074219 996.933594 553.742188 996.933594 616.015625 C 996.933594 678.289062 946.261719 728.960938 883.988281 728.960938 C 821.714844 728.960938 771.046875 678.289062 771.046875 616.015625 C 771.046875 553.742188 821.691406 503.074219 883.988281 503.074219 Z M 883.988281 503.074219 " fill-opacity="1" fill-rule="nonzero"/></g></svg>
